<?xml version="1.0" standalone="no"?>
<!DOCTYPE svg PUBLIC "-//W3C//DTD SVG 20010904//EN"
 "http://www.w3.org/TR/2001/REC-SVG-20010904/DTD/svg10.dtd">
<svg version="1.0" xmlns="http://www.w3.org/2000/svg"
 width="260.000000pt" height="260.000000pt" viewBox="0 0 260.000000 260.000000"
 preserveAspectRatio="xMidYMid meet">
<metadata>
Created by potrace 1.14, written by Peter Selinger 2001-2017
</metadata>
<g transform="translate(0.000000,260.000000) scale(0.100000,-0.100000)"
fill="#000000" stroke="none">
<path d="M1509 2523 c-99 -25 -186 -92 -230 -175 -46 -89 -56 -208 -23 -286 8
-19 14 -37 14 -41 0 -4 -150 -6 -332 -6 -183 1 -338 0 -343 -2 -7 -2 -10 -110
-9 -306 0 -166 -1 -305 -3 -309 -2 -5 -19 0 -36 9 -46 25 -186 24 -252 -1 -27
-11 -52 -22 -55 -25 -3 -4 -17 -14 -32 -24 -97 -62 -159 -220 -136 -348 37
-206 256 -341 449 -278 30 10 56 19 59 19 3 0 5 -151 5 -336 0 -184 2 -339 5
-343 8 -11 1940 -8 1941 4 2 17 4 675 2 675 -1 0 -14 -5 -29 -10 -64 -25 -141
-30 -209 -15 -223 50 -341 293 -244 500 74 157 263 241 421 188 38 -13 58 -16
61 -9 2 6 3 146 3 311 l-1 299 -310 1 c-267 1 -309 3 -306 15 2 8 10 34 17 57
7 24 12 73 10 111 -10 221 -223 380 -437 325z"/>
</g>
</svg>
